<svg width="24" height="24" viewBox="0 0 24 24" fill="none" xmlns="http://www.w3.org/2000/svg">
<g clip-path="url(#clip0_363_2458)">
<path d="M5.76172 2.66602C4.52096 3.81354 3.42935 5.1125 2.51465 6.53418C2.59869 7.33232 3.23535 11.2026 7.97559 16.0303H7.97656C12.7797 20.7491 16.64 21.3983 17.4639 21.4854C18.8862 20.5706 20.1852 19.4786 21.333 18.2373C19.9915 17.262 18.5603 16.4168 17.0586 15.7129C17.0146 15.7612 16.9624 15.8214 16.9033 15.8896C16.7821 16.0297 16.6458 16.1916 16.5283 16.332C16.2027 16.7576 15.8341 17.1486 15.4287 17.499L15.4199 17.5068L15.4111 17.5137L15.1562 17.6953L15.0703 17.7568L14.9678 17.7383L14.6592 17.6846L14.6455 17.6826V17.6807C13.9381 17.5173 13.2533 17.2682 12.6074 16.9365V16.9355C10.1908 15.7577 8.23763 13.8048 7.06055 11.3877V11.3867C6.73065 10.7421 6.48124 10.0591 6.31836 9.35352L6.31543 9.34082L6.26172 9.03223L6.24316 8.92969L6.30469 8.84375L6.48633 8.58887L6.49316 8.58008L6.50098 8.57129C6.85239 8.16446 7.24525 7.79456 7.67285 7.46875C7.88505 7.29916 8.08693 7.11743 8.28223 6.92871C7.5778 5.43177 6.73441 4.00441 5.76172 2.66602ZM23.5 18.2246C23.5 18.4555 23.3963 18.7042 23.2559 18.9424C23.1115 19.187 22.909 19.4523 22.6709 19.7246C22.1941 20.27 21.5552 20.8667 20.8955 21.418C20.2351 21.9698 19.5472 22.4819 18.9707 22.8574C18.6828 23.0449 18.418 23.2013 18.1963 23.3115C18.0856 23.3665 17.9813 23.4121 17.8877 23.4443C17.7981 23.4752 17.7011 23.5 17.6094 23.5C17.5039 23.5 12.6352 23.4112 6.56543 17.4443L6.5625 17.4414C0.588948 11.365 0.5 6.4962 0.5 6.39062C0.500022 6.29894 0.524834 6.20188 0.555664 6.1123C0.587894 6.01874 0.633472 5.9144 0.688477 5.80371C0.798678 5.58198 0.955069 5.3172 1.14258 5.0293C1.51808 4.45278 2.03024 3.76488 2.58203 3.10449C3.13325 2.44482 3.73001 1.8059 4.27539 1.3291C4.54771 1.09104 4.81296 0.888469 5.05762 0.744141C5.29578 0.603688 5.54451 0.5 5.77539 0.5H5.78418L5.79297 0.500977C6.08337 0.521929 6.36565 0.606762 6.61914 0.75C6.87259 0.893234 7.09102 1.09117 7.25879 1.3291H7.25781C7.35789 1.46551 8.13417 2.55866 8.87793 3.77734C9.27077 4.42106 9.66034 5.10803 9.93848 5.71387C10.0774 6.01653 10.1912 6.30527 10.2637 6.56152C10.3166 6.74882 10.3525 6.93457 10.3516 7.10352L10.3379 7.2666C10.246 7.78741 9.94749 8.13975 9.47852 8.55664L8.9541 9.00391C8.84473 9.09587 8.61896 9.28713 8.42188 9.46191C8.54594 9.82082 8.69139 10.172 8.85938 10.5127L8.86035 10.5146C9.84159 12.53 11.47 14.1584 13.4854 15.1396L13.4873 15.1406C13.8276 15.3084 14.1786 15.4532 14.5371 15.5771C14.6909 15.4038 14.8438 15.2297 14.9922 15.0518V15.0508C15.6436 14.2742 16.0386 13.7847 16.7324 13.6621H16.7334C16.9418 13.6261 17.1892 13.6665 17.4395 13.7373C17.696 13.8099 17.9844 13.9236 18.2871 14.0625C18.8932 14.3407 19.5801 14.7293 20.2236 15.1221C21.433 15.8602 22.5198 16.6317 22.6689 16.7412H22.6699C22.6729 16.7433 22.6757 16.7459 22.6787 16.748C22.6819 16.7504 22.6843 16.7519 22.6855 16.7529H22.6846C22.916 16.9191 23.1096 17.1327 23.25 17.3809C23.3933 17.6343 23.4781 17.9166 23.499 18.207L23.5 18.2158V18.2246Z" fill="url(#paint0_linear_363_2458)" stroke="url(#paint1_linear_363_2458)" stroke-width="0.5"/>
</g>
<defs>
<linearGradient id="paint0_linear_363_2458" x1="-2.75735" y1="-12.8798" x2="15.9393" y2="-9.28502" gradientUnits="userSpaceOnUse">
<stop stop-color="#C295ED" stop-opacity="0.6"/>
<stop offset="1" stop-color="#9357CC"/>
</linearGradient>
<linearGradient id="paint1_linear_363_2458" x1="4" y1="0.75" x2="16.2429" y2="24.6294" gradientUnits="userSpaceOnUse">
<stop stop-color="#B388DF"/>
<stop offset="1" stop-color="#9357CC"/>
</linearGradient>
<clipPath id="clip0_363_2458">
<rect width="24" height="24" fill="white"/>
</clipPath>
</defs>
</svg>
