<svg width="26" height="26" viewBox="0 0 26 26" fill="none" xmlns="http://www.w3.org/2000/svg">
<g clip-path="url(#clip0_434_3499)">
<path d="M23.4902 20.511V18.511C23.4866 15.7683 22.4594 13.1258 20.6098 11.1006C18.7602 9.07549 16.2213 7.8136 13.4902 7.562V6.234C13.8715 6.01387 14.1695 5.67407 14.338 5.26732C14.5065 4.86056 14.536 4.40958 14.4221 3.98432C14.3081 3.55905 14.057 3.18326 13.7078 2.91525C13.3585 2.64723 12.9305 2.50195 12.4902 2.50195C12.05 2.50195 11.622 2.64723 11.2727 2.91525C10.9234 3.18326 10.6723 3.55905 10.5584 3.98432C10.4444 4.40958 10.474 4.86056 10.6425 5.26732C10.811 5.67407 11.109 6.01387 11.4902 6.234V7.562C8.75913 7.8136 6.22025 9.07549 4.37064 11.1006C2.52103 13.1258 1.49387 15.7683 1.49023 18.511V20.511C1.22502 20.511 0.970664 20.6164 0.783128 20.8039C0.595591 20.9914 0.490234 21.2458 0.490234 21.511C0.490234 21.7762 0.595591 22.0306 0.783128 22.2181C0.970664 22.4056 1.22502 22.511 1.49023 22.511H23.4902C23.7555 22.511 24.0098 22.4056 24.1973 22.2181C24.3849 22.0306 24.4902 21.7762 24.4902 21.511C24.4902 21.2458 24.3849 20.9914 24.1973 20.8039C24.0098 20.6164 23.7555 20.511 23.4902 20.511ZM3.49023 18.511C3.96323 6.577 21.0212 6.586 21.4902 18.511V20.511H3.49023V18.511Z" fill="url(#paint0_linear_434_3499)"/>
</g>
<defs>
<linearGradient id="paint0_linear_434_3499" x1="3.49023" y1="2.51099" x2="17.4902" y2="22.011" gradientUnits="userSpaceOnUse">
<stop stop-color="#BC93E2" stop-opacity="0.6"/>
<stop offset="1" stop-color="#9357CC"/>
</linearGradient>
<clipPath id="clip0_434_3499">
<rect width="24.9959" height="24.9958" fill="white" transform="translate(0.490234 0.501953)"/>
</clipPath>
</defs>
</svg>
