<svg width="25" height="25" viewBox="0 0 25 25" fill="none" xmlns="http://www.w3.org/2000/svg">
<path d="M24.7068 23.2928L18.7378 17.3238C20.3644 15.3344 21.1642 12.7959 20.9716 10.2333C20.7791 7.67081 19.609 5.28031 17.7034 3.5563C15.7977 1.83229 13.3024 0.906674 10.7334 0.970906C8.16447 1.03514 5.71849 2.08431 3.9014 3.9014C2.08431 5.71848 1.03514 8.16447 0.970906 10.7334C0.906674 13.3024 1.83229 15.7977 3.5563 17.7034C5.28031 19.609 7.67081 20.7791 10.2333 20.9716C12.7959 21.1642 15.3344 20.3644 17.3238 18.7378L23.2928 24.7068C23.4814 24.8889 23.734 24.9897 23.9962 24.9875C24.2584 24.9852 24.5092 24.88 24.6946 24.6946C24.88 24.5092 24.9852 24.2584 24.9875 23.9962C24.9897 23.734 24.8889 23.4814 24.7068 23.2928ZM10.9998 18.9998C9.41753 18.9998 7.87081 18.5306 6.55522 17.6515C5.23963 16.7725 4.21425 15.5231 3.60875 14.0612C3.00324 12.5994 2.84482 10.9909 3.1535 9.43906C3.46218 7.88721 4.22411 6.46175 5.34293 5.34293C6.46175 4.22411 7.88721 3.46218 9.43906 3.1535C10.9909 2.84482 12.5994 3.00324 14.0613 3.60875C15.5231 4.21425 16.7725 5.23963 17.6515 6.55522C18.5306 7.87081 18.9998 9.41753 18.9998 10.9998C18.9974 13.1208 18.1538 15.1542 16.654 16.654C15.1542 18.1538 13.1208 18.9974 10.9998 18.9998Z" fill="black" fill-opacity="0.7"/>
</svg>
