<svg width="19" height="22" viewBox="0 0 19 22" fill="none" xmlns="http://www.w3.org/2000/svg">
<path d="M15.568 9.51476H15.5229V8.4123C15.5229 4.87089 12.6521 2 9.11065 2C5.5692 2 2.69835 4.87089 2.69835 8.4123V9.51476H2.42838C1.4384 9.51476 0.673437 10.3922 0.673437 11.4047V14.2171C0.648502 15.1984 1.42384 16.0142 2.40517 16.0391C2.41292 16.0393 2.42063 16.0395 2.42838 16.0395H4.09332C4.32914 16.0285 4.51135 15.8283 4.50024 15.5924C4.49985 15.584 4.4992 15.5755 4.4983 15.567V10.0547C4.4983 9.78474 4.34081 9.51472 4.09332 9.51472H3.59833V8.41225C3.59833 5.3679 6.0663 2.89993 9.11065 2.89993C12.155 2.89993 14.623 5.3679 14.623 8.41225V9.51472H14.128C13.8805 9.51472 13.723 9.78469 13.723 10.0547V15.567C13.6979 15.8018 13.8678 16.0125 14.1026 16.0376C14.111 16.0385 14.1195 16.0391 14.128 16.0395H14.6455L14.6005 16.107C14.2675 16.5495 13.8357 16.9081 13.3397 17.1542C12.8436 17.4003 12.2968 17.5271 11.743 17.5244C11.4972 16.3191 10.3208 15.5412 9.11543 15.7871C8.08467 15.9973 7.3415 16.9 7.33318 17.9519C7.3455 19.1857 8.34926 20.1794 9.58312 20.1793C10.1939 20.1694 10.7761 19.9188 11.2031 19.4819C11.4911 19.1869 11.6799 18.8093 11.743 18.4019C12.4365 18.4045 13.1211 18.2452 13.7421 17.9366C14.3632 17.628 14.9036 17.1787 15.3204 16.6245L15.7479 15.9945C16.7154 15.927 17.3229 15.3195 17.3229 14.442V11.6296C17.3229 10.6622 16.6029 9.51476 15.568 9.51476ZM3.59833 15.1396H2.42838C1.9439 15.1278 1.56071 14.7255 1.57251 14.241C1.57272 14.2331 1.57302 14.2251 1.57341 14.2171V11.4047C1.57341 10.8872 1.93339 10.4147 2.42838 10.4147H3.59833V15.1396ZM10.5506 18.8519C10.4273 18.9857 10.2777 19.0927 10.1113 19.1662C9.94488 19.2398 9.76511 19.2783 9.58316 19.2795C8.85114 19.2678 8.2571 18.6837 8.2332 17.952C8.2329 17.2188 8.82698 16.6243 9.56012 16.624C10.2933 16.6237 10.8878 17.2178 10.8881 17.9509V17.952C10.8974 18.1172 10.8722 18.2825 10.8141 18.4375C10.7559 18.5924 10.6662 18.7336 10.5506 18.8519ZM16.4229 14.4421C16.4229 15.0496 15.8379 15.1396 15.568 15.1396H14.623V10.4147H15.568C16.0629 10.4147 16.4229 11.1122 16.4229 11.6297V14.4421Z" fill="black" fill-opacity="0.7"/>
<path d="M9.11035 1.84961C12.7346 1.84961 15.6728 4.78794 15.6729 8.41211V9.37109C16.2032 9.40726 16.6444 9.71219 16.9531 10.1191C17.2813 10.5519 17.4727 11.1122 17.4727 11.6299V14.4424C17.4726 14.9172 17.3077 15.3283 17.0039 15.6289C16.7159 15.9139 16.3126 16.0883 15.833 16.1357L15.4443 16.709L15.4404 16.7148C15.0096 17.2877 14.4505 17.7523 13.8086 18.0713C13.2037 18.3718 12.5404 18.5323 11.8662 18.5479C11.7818 18.9387 11.5911 19.2996 11.3105 19.5869C10.8561 20.052 10.2361 20.3185 9.58594 20.3291H9.58301C8.26695 20.3291 7.19673 19.2692 7.18359 17.9531V17.9512C7.19247 16.8284 7.98576 15.864 9.08594 15.6396C10.3303 15.3861 11.542 16.1561 11.8574 17.3711C12.3488 17.357 12.8323 17.2384 13.2734 17.0195C13.6819 16.8168 14.0444 16.5341 14.3408 16.1895H14.1211C14.1097 16.1889 14.0983 16.1877 14.0869 16.1865C13.7752 16.1532 13.5496 15.8779 13.5742 15.5674H13.5732V10.0547C13.5732 9.8928 13.6202 9.72689 13.71 9.59766C13.8008 9.46704 13.9434 9.36428 14.1279 9.36426H14.4727V8.41211C14.4726 5.45067 12.0718 3.0498 9.11035 3.0498C6.14903 3.04997 3.74812 5.45077 3.74805 8.41211V9.36426H4.09375C4.27816 9.36442 4.42095 9.46706 4.51172 9.59766C4.60146 9.72689 4.64843 9.89281 4.64844 10.0547V15.5674C4.6489 15.5733 4.65012 15.5791 4.65039 15.585L4.64355 15.7021C4.60215 15.9675 4.37925 16.1763 4.10059 16.1895H2.40137C1.33723 16.1624 0.496398 15.277 0.523438 14.2129V11.4043C0.523647 10.3227 1.34311 9.36523 2.42871 9.36523H2.54883V8.41211C2.54893 4.78804 5.48626 1.84977 9.11035 1.84961ZM9.56055 16.7744C8.91025 16.7747 8.38255 17.3019 8.38281 17.9521C8.40664 18.601 8.93437 19.1178 9.58398 19.1289C9.74476 19.1276 9.90371 19.0943 10.0508 19.0293C10.1984 18.9641 10.331 18.8686 10.4404 18.75L10.4434 18.7471C10.5444 18.6436 10.623 18.5202 10.6738 18.3848C10.7246 18.2493 10.7464 18.1044 10.7383 17.96V17.9512C10.738 17.301 10.2107 16.7743 9.56055 16.7744ZM14.7734 14.9893H15.5684C15.6918 14.9892 15.8762 14.9678 16.0244 14.8867C16.1618 14.8116 16.2724 14.6851 16.2725 14.4424V11.6299C16.2725 11.4014 16.1923 11.1248 16.0547 10.9082C15.9149 10.6882 15.7408 10.5646 15.5684 10.5645H14.7734V14.9893ZM2.42871 10.5645C2.04151 10.5645 1.7238 10.9426 1.72363 11.4043V14.2246C1.7233 14.2315 1.72284 14.2383 1.72266 14.2451C1.71312 14.6464 2.0303 14.9793 2.43164 14.9893H3.44824V10.5645H2.42871Z" stroke="black" stroke-opacity="0.7" stroke-width="0.3"/>
</svg>
